<svg width="16" height="32" viewBox="0 0 16 32" fill="none" xmlns="http://www.w3.org/2000/svg">
<path d="M0.479647 29.724C0.236769 29.9754 0.102377 30.3122 0.105415 30.6618C0.108453 31.0114 0.248676 31.3458 0.495887 31.5931C0.743098 31.8403 1.07752 31.9805 1.42711 31.9835C1.77671 31.9866 2.11351 31.8522 2.36498 31.6093L13.261 20.7133C14.5108 19.4631 15.2129 17.7677 15.2129 16C15.2129 14.2322 14.5108 12.5368 13.261 11.2866L2.36498 0.390632C2.11351 0.147754 1.77671 0.0133618 1.42711 0.0163997C1.07752 0.0194376 0.743098 0.159664 0.495887 0.406875C0.248676 0.654085 0.108453 0.988503 0.105415 1.3381C0.102377 1.68769 0.236769 2.0245 0.479647 2.27597L11.3756 13.172C12.1255 13.9221 12.5468 14.9393 12.5468 16C12.5468 17.0606 12.1255 18.0779 11.3756 18.828L0.479647 29.724Z" fill="#C2C8CD"/>
</svg>
